<!DOCTYPE svg PUBLIC "-//W3C//DTD SVG 1.1//EN" "http://www.w3.org/Graphics/SVG/1.1/DTD/svg11.dtd">
<!-- Uploaded to: SVG Repo, www.svgrepo.com, Transformed by: SVG Repo Mixer Tools -->
<svg width="800px" height="800px" viewBox="0 -2.98 48.166 48.166" xmlns="http://www.w3.org/2000/svg" fill="#ffffff" stroke="#ffffff">
<g id="SVGRepo_bgCarrier" stroke-width="0"/>
<g id="SVGRepo_tracerCarrier" stroke-linecap="round" stroke-linejoin="round"/>
<g id="SVGRepo_iconCarrier"> <g id="Group_27" data-name="Group 27" transform="translate(-488.417 -365.351)"> <rect id="Rectangle_12" data-name="Rectangle 12" width="46.104" height="8.302" transform="translate(535.521 392.804) rotate(-180)" fill="none" stroke="#ffffff" stroke-linecap="round" stroke-linejoin="round" stroke-width="2"/> <rect id="Rectangle_13" data-name="Rectangle 13" width="46.104" height="5.087" transform="translate(535.521 397.891) rotate(-180)" fill="none" stroke="#ffffff" stroke-linecap="round" stroke-linejoin="round" stroke-width="2"/> <rect id="Rectangle_14" data-name="Rectangle 14" width="46.104" height="8.675" transform="translate(535.521 406.566) rotate(-180)" fill="none" stroke="#ffffff" stroke-linecap="round" stroke-linejoin="round" stroke-width="2"/> <path id="Path_58" data-name="Path 58" d="M510.845,374.859l24.738,9.643h-46.1l10.908-9.961" fill="none" stroke="#ffffff" stroke-linecap="round" stroke-linejoin="round" stroke-width="2"/> <g id="Group_26" data-name="Group 26"> <circle id="Ellipse_59" data-name="Ellipse 59" cx="3.248" cy="3.248" r="3.248" transform="translate(499.392 374.236)" fill="none" stroke="#ffffff" stroke-linecap="round" stroke-linejoin="round" stroke-width="2"/> <circle id="Ellipse_60" data-name="Ellipse 60" cx="3.248" cy="3.248" r="3.248" transform="translate(502.64 368.285)" fill="none" stroke="#ffffff" stroke-linecap="round" stroke-linejoin="round" stroke-width="2"/> <circle id="Ellipse_61" data-name="Ellipse 61" cx="3.248" cy="3.248" r="3.248" transform="translate(506.151 374.236)" fill="none" stroke="#ffffff" stroke-linecap="round" stroke-linejoin="round" stroke-width="2"/> <path id="Path_59" data-name="Path 59" d="M501.446,368.413a3.495,3.495,0,1,1-4.942,4.942c-1.387-1.387-2.062-7-2.062-7S500.059,367.026,501.446,368.413Z" fill="none" stroke="#ffffff" stroke-linecap="round" stroke-linejoin="round" stroke-width="2"/> </g> </g> </g>
</svg>