<!DOCTYPE svg PUBLIC "-//W3C//DTD SVG 1.1//EN" "http://www.w3.org/Graphics/SVG/1.1/DTD/svg11.dtd">
<!-- Uploaded to: SVG Repo, www.svgrepo.com, Transformed by: SVG Repo Mixer Tools -->
<svg width="256px" height="256px" viewBox="0 0 512 512" xmlns="http://www.w3.org/2000/svg" fill="#ffffff" stroke="#ffffff">
<g id="SVGRepo_bgCarrier" stroke-width="0"/>
<g id="SVGRepo_tracerCarrier" stroke-linecap="round" stroke-linejoin="round"/>
<g id="SVGRepo_iconCarrier"> <defs> <style>.cls-1{fill:#000000;}.cls-2{fill:#000000;}</style> </defs> <title/> <g data-name="Layer 5" id="Layer_5"> <circle class="cls-1" cx="164.5" cy="340.5" r="21.5"/> <circle class="cls-2" cx="357.5" cy="340.5" r="21.5"/> <path d="M404.95,199.31c-11-11.94-26.73-18.47-44.16-18.47H315.31V155.29A8.36,8.36,0,0,0,307,147h-207a8.36,8.36,0,0,0-8.33,8.33V338.52a8.36,8.36,0,0,0,8.33,8.33h33.19a32.77,32.77,0,0,0,64.57,0H325.24a32.77,32.77,0,0,0,64.57,0h24.86a8.36,8.36,0,0,0,8.33-8.33v-86.1C422.93,230.41,416.75,212,404.95,199.31ZM108.26,163.62H298.65V330.26H196.23a32.73,32.73,0,0,0-61.66,0H108.26ZM165.4,357.34a16.11,16.11,0,1,1,16.11-16.11A16.12,16.12,0,0,1,165.4,357.34Zm192.12,0a16.11,16.11,0,1,1,16.11-16.11A16.12,16.12,0,0,1,357.52,357.34Zm48.74-27.15H388.35a32.73,32.73,0,0,0-61.66,0H315.38V197.5h45.48c28.05,0,45.48,21,45.48,54.92v77.76Z"/> </g> </g>
</svg>