<!DOCTYPE svg PUBLIC "-//W3C//DTD SVG 1.1//EN" "http://www.w3.org/Graphics/SVG/1.1/DTD/svg11.dtd">
<!-- Uploaded to: SVG Repo, www.svgrepo.com, Transformed by: SVG Repo Mixer Tools -->
<svg fill="#ffffff" height="800px" width="800px" version="1.1" id="Layer_1" xmlns="http://www.w3.org/2000/svg" xmlns:xlink="http://www.w3.org/1999/xlink" viewBox="0 0 512 512" xml:space="preserve" stroke="#ffffff">
<g id="SVGRepo_bgCarrier" stroke-width="0"/>
<g id="SVGRepo_tracerCarrier" stroke-linecap="round" stroke-linejoin="round"/>
<g id="SVGRepo_iconCarrier"> <g> <g> <path d="M509.706,260.61c-8.504-60.755-39.985-121.013-88.643-169.671C372.403,42.28,312.145,10.799,251.39,2.294 C188.966-6.442,133.381,9.948,94.88,48.451c-3.002,3.002-4.689,7.072-4.689,11.317s1.686,8.315,4.689,11.317l346.035,346.034 c3.002,3.002,7.072,4.689,11.317,4.689s8.317-1.687,11.317-4.689C502.052,378.618,518.443,323.035,509.706,260.61z M451.509,382.445L129.556,60.492C197.757,7.8,314.442,29.589,398.427,113.575C482.413,197.56,504.202,314.243,451.509,382.445z"/> </g> </g> <g> <g> <path d="M417.12,440.915L71.085,94.882c-3.002-3.002-7.072-4.689-11.317-4.689s-8.317,1.687-11.317,4.689 C9.948,133.384-6.443,188.966,2.295,251.391c8.504,60.755,39.985,121.013,88.643,169.671 c48.659,48.659,108.916,80.14,169.672,88.644c10.969,1.535,21.725,2.294,32.216,2.294c49.213,0,92.557-16.714,124.293-48.451 c3.002-3.002,4.689-7.072,4.689-11.317S420.122,443.917,417.12,440.915z M113.573,398.427 C29.588,314.441,7.799,197.758,60.491,129.557L382.445,451.51C314.243,504.201,197.559,482.412,113.573,398.427z"/> </g> </g> </g>
</svg>